<?xml version="1.0" encoding="UTF-8" standalone="no"?>
<!DOCTYPE svg PUBLIC "-//W3C//DTD SVG 1.1//EN" "http://www.w3.org/Graphics/SVG/1.1/DTD/svg11.dtd">
<svg width="100%" height="100%" viewBox="0 0 800 800" version="1.1" xmlns="http://www.w3.org/2000/svg" xmlns:xlink="http://www.w3.org/1999/xlink" xml:space="preserve" xmlns:serif="http://www.serif.com/" style="fill-rule:evenodd;clip-rule:evenodd;stroke-linejoin:round;stroke-miterlimit:2;">
    <g transform="matrix(1,0,0,1,-235,-809)">
        <g transform="matrix(2.02015,0,0,2.02017,-51.8034,252.584)">
            <rect x="142.327" y="275.741" width="396.011" height="396.011" style="fill:none;"/>
            <g transform="matrix(0.495014,0,0,0.495007,25.6434,-125.031)">
                <path d="M683.719,989.774C710.259,995.549 735.058,1006.01 757.207,1020.26L823.102,954.368L890.984,1022.25L825.089,1088.15C839.335,1110.3 849.802,1135.1 855.578,1161.63L948.719,1161.63L948.719,1257.63L855.578,1257.63C849.803,1284.17 839.338,1308.97 825.089,1331.12L890.984,1397.02L823.102,1464.9L757.207,1399C735.056,1413.25 710.256,1423.72 683.719,1429.49L683.719,1522.63L587.719,1522.63L587.719,1429.49C561.178,1423.72 536.379,1413.25 514.231,1399L448.335,1464.9L380.453,1397.02L446.348,1331.12C432.102,1308.97 421.635,1284.17 415.859,1257.63L322.719,1257.63L322.719,1161.63L415.859,1161.63C421.634,1135.09 432.1,1110.29 446.348,1088.15L380.453,1022.25L448.335,954.368L514.231,1020.26C536.381,1006.02 561.182,995.55 587.719,989.774L587.719,896.634L683.719,896.634L683.719,989.774ZM635.719,1084.63C704.708,1084.63 760.719,1140.64 760.719,1209.63C760.719,1278.62 704.708,1334.63 635.719,1334.63C566.729,1334.63 510.719,1278.62 510.719,1209.63C510.719,1140.64 566.729,1084.63 635.719,1084.63Z" style="fill:url(#_Linear1);"/>
            </g>
        </g>
    </g>
    <defs>
        <linearGradient id="_Linear1" x1="0" y1="0" x2="1" y2="0" gradientUnits="userSpaceOnUse" gradientTransform="matrix(626,0,0,626,322.719,1209.63)"><stop offset="0" style="stop-color:rgb(155,146,141);stop-opacity:1"/><stop offset="1" style="stop-color:rgb(69,76,84);stop-opacity:1"/></linearGradient>
    </defs>
</svg>
